<svg width="59" height="48" viewBox="0 0 59 48" fill="none" xmlns="http://www.w3.org/2000/svg">
<path d="M53.4773 47.5909C54.9773 47.5909 56.2652 47.0606 57.3409 46C58.4015 44.9242 58.9318 43.6364 58.9318 42.1364C58.9318 40.6515 58.4015 39.3788 57.3409 38.3182C56.2652 37.2576 54.9773 36.7273 53.4773 36.7273C52.0227 36.7273 50.75 37.2576 49.6591 38.3182C48.5682 39.3788 48.0227 40.6515 48.0227 42.1364C48.0227 43.1364 48.2803 44.053 48.7955 44.8864C49.2955 45.7045 49.9545 46.3636 50.7727 46.8636C51.5909 47.3485 52.4924 47.5909 53.4773 47.5909Z" fill="#0067A4"/>
<path d="M0.960224 0.454544V47H9.46023L29.7102 17.7045H30.0511V47H39.892V0.454544H31.2557L11.1648 29.7273H10.7557V0.454544H0.960224Z" fill="black"/>
</svg>
